<svg width="24" height="25" viewBox="0 0 24 25" fill="none" xmlns="http://www.w3.org/2000/svg">
<path d="M11.9999 0C5.37299 0 -6.10352e-05 5.59894 -6.10352e-05 12.5C-6.10352e-05 19.4051 5.37299 25 11.9999 25C18.6269 25 23.9999 19.4051 23.9999 12.5C23.9999 5.59894 18.6269 0 11.9999 0ZM11.9999 5.54435C13.1223 5.54435 14.0322 6.49214 14.0322 7.66129C14.0322 8.83044 13.1223 9.77823 11.9999 9.77823C10.8776 9.77823 9.96768 8.83044 9.96768 7.66129C9.96768 6.49214 10.8776 5.54435 11.9999 5.54435ZM14.7096 18.3468C14.7096 18.6808 14.4496 18.9516 14.129 18.9516H9.87091C9.55025 18.9516 9.29026 18.6808 9.29026 18.3468V17.1371C9.29026 16.8031 9.55025 16.5323 9.87091 16.5323H10.4516V13.3065H9.87091C9.55025 13.3065 9.29026 13.0356 9.29026 12.7016V11.4919C9.29026 11.1579 9.55025 10.8871 9.87091 10.8871H12.9677C13.2883 10.8871 13.5483 11.1579 13.5483 11.4919V16.5323H14.129C14.4496 16.5323 14.7096 16.8031 14.7096 17.1371V18.3468Z" fill="#EFF5F8"/>
</svg>
