<svg width="21" height="18" viewBox="0 0 21 18" fill="none" xmlns="http://www.w3.org/2000/svg">
<path d="M20.1443 5.94375C20.3007 5.79844 20.5333 5.93437 20.5333 6.16406V15.75C20.5333 16.9922 19.6711 18 18.6083 18H1.925C0.86224 18 0 16.9922 0 15.75V6.16875C0 5.93438 0.228594 5.80312 0.38901 5.94844C1.28734 6.76406 2.47844 7.8 6.56906 11.2734C7.41526 11.9953 8.84297 13.5141 10.2667 13.5047C11.6984 13.5188 13.1542 11.9672 13.9683 11.2734C18.0589 7.8 19.246 6.75938 20.1443 5.94375ZM10.2667 12C11.1971 12.0188 12.5366 10.6313 13.2103 10.0594C18.5321 5.54531 18.9372 5.15156 20.1644 4.02656C20.397 3.81562 20.5333 3.4875 20.5333 3.14062V2.25C20.5333 1.00781 19.6711 0 18.6083 0H1.925C0.86224 0 0 1.00781 0 2.25V3.14062C0 3.4875 0.136354 3.81094 0.368958 4.02656C1.59615 5.14687 2.0012 5.54531 7.32302 10.0594C7.99677 10.6313 9.33625 12.0188 10.2667 12Z" fill="#EFF5F8"/>
</svg>
