<svg width="25" height="21" viewBox="0 0 25 21" fill="none" xmlns="http://www.w3.org/2000/svg">
<path d="M12.1685 5.44734L4.167 12.5653V20.2477C4.167 20.4466 4.24016 20.6373 4.37038 20.778C4.5006 20.9186 4.67722 20.9977 4.86139 20.9977L9.72473 20.9841C9.90829 20.9831 10.084 20.9036 10.2135 20.7631C10.343 20.6225 10.4156 20.4323 10.4156 20.2341V15.7477C10.4156 15.5487 10.4888 15.358 10.619 15.2173C10.7493 15.0767 10.9259 14.9977 11.11 14.9977H13.8876C14.0718 14.9977 14.2484 15.0767 14.3786 15.2173C14.5088 15.358 14.582 15.5487 14.582 15.7477V20.2308C14.5817 20.3295 14.5995 20.4273 14.6342 20.5185C14.669 20.6098 14.7201 20.6927 14.7846 20.7626C14.8491 20.8325 14.9258 20.888 15.0101 20.9258C15.0945 20.9637 15.185 20.9831 15.2764 20.9831L20.138 20.9977C20.3222 20.9977 20.4988 20.9186 20.629 20.778C20.7592 20.6373 20.8324 20.4466 20.8324 20.2477V12.5602L12.8326 5.44734C12.7385 5.36546 12.6214 5.32082 12.5006 5.32082C12.3798 5.32082 12.2626 5.36546 12.1685 5.44734ZM24.8078 10.2853L21.1796 7.05516V0.5625C21.1796 0.413316 21.1247 0.270242 21.027 0.164753C20.9294 0.0592633 20.7969 0 20.6588 0H18.2284C18.0903 0 17.9578 0.0592633 17.8602 0.164753C17.7625 0.270242 17.7076 0.413316 17.7076 0.5625V3.96609L13.8221 0.513281C13.4492 0.181865 12.9813 0.000662506 12.4984 0.000662506C12.0155 0.000662506 11.5476 0.181865 11.1747 0.513281L0.189004 10.2853C0.136268 10.3324 0.0926378 10.3902 0.0606055 10.4555C0.0285733 10.5208 0.00876702 10.5923 0.00231847 10.6659C-0.00413009 10.7394 0.00290544 10.8137 0.0230231 10.8843C0.0431407 10.9549 0.0759461 11.0206 0.119565 11.0775L1.22625 12.5306C1.26975 12.5878 1.32326 12.6351 1.3837 12.6698C1.44415 12.7046 1.51035 12.7261 1.57852 12.7332C1.64669 12.7403 1.71548 12.7328 1.78096 12.7112C1.84645 12.6895 1.90733 12.6541 1.96013 12.607L12.1685 3.52547C12.2626 3.44359 12.3798 3.39894 12.5006 3.39894C12.6214 3.39894 12.7385 3.44359 12.8326 3.52547L23.0414 12.607C23.0941 12.6541 23.1549 12.6896 23.2203 12.7113C23.2857 12.733 23.3544 12.7406 23.4225 12.7337C23.4906 12.7267 23.5568 12.7053 23.6173 12.6707C23.6777 12.6361 23.7313 12.589 23.7749 12.532L24.8815 11.0789C24.9251 11.0216 24.9578 10.9557 24.9777 10.8847C24.9975 10.8138 25.0043 10.7393 24.9974 10.6655C24.9905 10.5918 24.9703 10.5202 24.9377 10.455C24.9052 10.3897 24.861 10.3321 24.8078 10.2853Z" fill="#EFF5F8"/>
</svg>
