<svg width="21" height="18" viewBox="0 0 21 18" fill="none" xmlns="http://www.w3.org/2000/svg">
<path d="M19.6778 0H3.13704C2.66452 0 2.28148 0.503672 2.28148 1.125V1.5H0.855556C0.383039 1.5 0 2.00367 0 2.625V15.375C0 16.8247 0.89377 18 1.9963 18H18.8222C19.7673 18 20.5333 16.9927 20.5333 15.75V1.125C20.5333 0.503672 20.1503 0 19.6778 0ZM1.9963 15.75C1.92066 15.75 1.84812 15.7105 1.79464 15.6402C1.74116 15.5698 1.71111 15.4745 1.71111 15.375V3.75H2.28148V15.375C2.28148 15.4745 2.25144 15.5698 2.19795 15.6402C2.14447 15.7105 2.07193 15.75 1.9963 15.75ZM10.4093 15H4.99074C4.7545 15 4.56296 14.7481 4.56296 14.4375V14.0625C4.56296 13.7519 4.7545 13.5 4.99074 13.5H10.4093C10.6455 13.5 10.837 13.7519 10.837 14.0625V14.4375C10.837 14.7481 10.6455 15 10.4093 15ZM17.8241 15H12.4056C12.1693 15 11.9778 14.7481 11.9778 14.4375V14.0625C11.9778 13.7519 12.1693 13.5 12.4056 13.5H17.8241C18.0603 13.5 18.2519 13.7519 18.2519 14.0625V14.4375C18.2519 14.7481 18.0603 15 17.8241 15ZM10.4093 10.5H4.99074C4.7545 10.5 4.56296 10.2481 4.56296 9.9375V9.5625C4.56296 9.25186 4.7545 9 4.99074 9H10.4093C10.6455 9 10.837 9.25186 10.837 9.5625V9.9375C10.837 10.2481 10.6455 10.5 10.4093 10.5ZM17.8241 10.5H12.4056C12.1693 10.5 11.9778 10.2481 11.9778 9.9375V9.5625C11.9778 9.25186 12.1693 9 12.4056 9H17.8241C18.0603 9 18.2519 9.25186 18.2519 9.5625V9.9375C18.2519 10.2481 18.0603 10.5 17.8241 10.5ZM17.8241 6H4.99074C4.7545 6 4.56296 5.74814 4.56296 5.4375V3.5625C4.56296 3.25186 4.7545 3 4.99074 3H17.8241C18.0603 3 18.2519 3.25186 18.2519 3.5625V5.4375C18.2519 5.74814 18.0603 6 17.8241 6Z" fill="#EFF5F8"/>
</svg>
