<svg width="40" height="56" viewBox="0 0 40 56" fill="none" xmlns="http://www.w3.org/2000/svg">
<path d="M19.6891 49.8939L16.1288 46.9605C15.9571 46.8191 15.9571 46.5897 16.1288 46.4482L16.544 46.1061C16.7155 45.9649 16.9933 45.9646 17.1651 46.1055L20 48.4303L22.8349 46.1055C23.0067 45.9646 23.2845 45.9649 23.456 46.1061L23.8712 46.4482C24.0429 46.5897 24.0429 46.8191 23.8712 46.9605L20.3109 49.8939C20.1392 50.0354 19.8608 50.0354 19.6891 49.8939Z" fill="#E7FF54"/>
<path d="M19.99 18C14.47 18 10 22.48 10 28C10 33.52 14.47 38 19.99 38C25.52 38 30 33.52 30 28C30 22.48 25.52 18 19.99 18ZM26.92 24H23.97C23.65 22.75 23.19 21.55 22.59 20.44C24.43 21.07 25.96 22.35 26.92 24ZM20 20.04C20.83 21.24 21.48 22.57 21.91 24H18.09C18.52 22.57 19.17 21.24 20 20.04ZM12.26 30C12.1 29.36 12 28.69 12 28C12 27.31 12.1 26.64 12.26 26H15.64C15.56 26.66 15.5 27.32 15.5 28C15.5 28.68 15.56 29.34 15.64 30H12.26ZM13.08 32H16.03C16.35 33.25 16.81 34.45 17.41 35.56C15.57 34.93 14.04 33.66 13.08 32ZM16.03 24H13.08C14.04 22.34 15.57 21.07 17.41 20.44C16.81 21.55 16.35 22.75 16.03 24ZM20 35.96C19.17 34.76 18.52 33.43 18.09 32H21.91C21.48 33.43 20.83 34.76 20 35.96ZM22.34 30H17.66C17.57 29.34 17.5 28.68 17.5 28C17.5 27.32 17.57 26.65 17.66 26H22.34C22.43 26.65 22.5 27.32 22.5 28C22.5 28.68 22.43 29.34 22.34 30ZM22.59 35.56C23.19 34.45 23.65 33.25 23.97 32H26.92C25.96 33.65 24.43 34.93 22.59 35.56ZM24.36 30C24.44 29.34 24.5 28.68 24.5 28C24.5 27.32 24.44 26.66 24.36 26H27.74C27.9 26.64 28 27.31 28 28C28 28.69 27.9 29.36 27.74 30H24.36Z" fill="#EFF5F8"/>
</svg>
