<svg width="40" height="56" viewBox="0 0 40 56" fill="none" xmlns="http://www.w3.org/2000/svg">
<path d="M30.5832 24.9438C30.7508 24.7984 31 24.9344 31 25.1641V34.75C31 35.9922 30.0762 37 28.9375 37H11.0625C9.92383 37 9 35.9922 9 34.75V25.1688C9 24.9344 9.24492 24.8031 9.4168 24.9484C10.3793 25.7641 11.6555 26.8 16.0383 30.2734C16.9449 30.9953 18.4746 32.5141 20 32.5047C21.534 32.5188 23.0937 30.9672 23.966 30.2734C28.3488 26.8 29.6207 25.7594 30.5832 24.9438ZM20 31C20.9969 31.0188 22.432 29.6313 23.1539 29.0594C28.8559 24.5453 29.2898 24.1516 30.6047 23.0266C30.8539 22.8156 31 22.4875 31 22.1406V21.25C31 20.0078 30.0762 19 28.9375 19H11.0625C9.92383 19 9 20.0078 9 21.25V22.1406C9 22.4875 9.14609 22.8109 9.39531 23.0266C10.7102 24.1469 11.1441 24.5453 16.8461 29.0594C17.568 29.6313 19.0031 31.0188 20 31Z" fill="#EFF5F8"/>
<path d="M40 14.5C40 19.1944 36.1944 23 31.5 23C26.8056 23 23 19.1944 23 14.5C23 9.80558 26.8056 6 31.5 6C36.1944 6 40 9.80558 40 14.5Z" fill="#12E4BA"/>
<path d="M19.6891 49.8939L16.1288 46.9605C15.9571 46.8191 15.9571 46.5897 16.1288 46.4482L16.544 46.1061C16.7155 45.9649 16.9933 45.9646 17.1651 46.1055L20 48.4303L22.8349 46.1055C23.0067 45.9646 23.2845 45.9649 23.456 46.1061L23.8712 46.4482C24.0429 46.5897 24.0429 46.8191 23.8712 46.9605L20.3109 49.8939C20.1392 50.0354 19.8608 50.0354 19.6891 49.8939Z" fill="#E7FF54"/>
</svg>
